<svg version="1.1" class="clearos-svg clearfoundation app-vendor-clearfoundation app-free app-category-system app-sub-category-accounts" viewBox="0 0 400 400" preserveAspectRatio="xMinYMin" xmlns="http://www.w3.org/2000/svg" xmlns:xlink= "http://www.w3.org/1999/xlink">
<path fill="#AA0707" d="M91.666,184.647"/>
<path fill="#AA0707" d="M123.245,247.805"/>
<path fill="#AA0707" d="M91.666,184.647"/>
<path fill="#AA0707" d="M123.245,247.805"/>
<g>
	<path fill="#686868" d="M239.563,242.184h-6.272v-33.36c15.985-11.263,26.53-29.808,26.53-50.911
		c0-34.471-27.939-62.426-62.437-62.426c-34.446,0-62.403,27.971-62.403,62.426c0,21.088,10.528,39.633,26.517,50.912v33.359h-7.783
		c-74.91,0-72.313,72.242-72.313,150.867h237.175C318.608,321.686,315.184,242.184,239.563,242.184z"/>
	<g>
		<path fill="#686868" d="M276.965,156.213c0,47.902-23.121,75.646-23.121,75.646c34.995,0,62.371,36.293,71.979,73.117h70.818
			c0-71.334-3.412-150.846-79.018-150.846h-6.242v-33.384c15.957-11.264,26.501-29.809,26.501-50.913
			c0-34.486-27.938-62.442-62.401-62.442c-34.494,0-62.418,27.956-62.418,62.442c0,2.002,0.203,3.974,0.357,5.945
			C245.021,83.267,276.965,108.32,276.965,156.213z"/>
		<path fill="#686868" d="M140.88,233.156c0,0-25.101-27.07-25.101-76.958c0-49.88,33.705-73.479,65.633-80.62
			c0.234-2.034,0.383-4.106,0.383-6.218c0-34.456-27.939-62.411-62.411-62.411c-34.463,0-62.411,27.955-62.411,62.426
			c0,21.08,10.521,39.649,26.508,50.913v33.368h-7.798c-74.91,0-72.313,72.228-72.313,150.853h64.976
			C74.77,266.994,102.373,233.156,140.88,233.156z"/>
	</g>
</g>
</svg>
